<mxfile host="app.diagrams.net" agent="Mozilla/5.0 (Windows NT 10.0; Win64; x64) AppleWebKit/537.36 (KHTML, like Gecko) Chrome/136.0.0.0 Safari/537.36 Edg/136.0.0.0" version="25.0.3">
  <diagram name="Seite-1" id="HWBa4NnrcEOpUjWAgoo_">
    <mxGraphModel dx="1188" dy="1820" grid="1" gridSize="10" guides="1" tooltips="1" connect="1" arrows="1" fold="1" page="1" pageScale="1" pageWidth="827" pageHeight="1169" math="0" shadow="0">
      <root>
        <mxCell id="0" />
        <mxCell id="1" parent="0" />
        <mxCell id="l4kl2T851ScJ1SUTK7Ik-12" style="edgeStyle=orthogonalEdgeStyle;rounded=0;orthogonalLoop=1;jettySize=auto;html=1;entryX=0.486;entryY=1.016;entryDx=0;entryDy=0;entryPerimeter=0;endArrow=none;endFill=0;" edge="1" parent="1" source="l4kl2T851ScJ1SUTK7Ik-1" target="l4kl2T851ScJ1SUTK7Ik-7">
          <mxGeometry relative="1" as="geometry">
            <Array as="points">
              <mxPoint x="200" y="342" />
            </Array>
          </mxGeometry>
        </mxCell>
        <mxCell id="l4kl2T851ScJ1SUTK7Ik-14" value="0..n" style="edgeLabel;html=1;align=center;verticalAlign=middle;resizable=0;points=[];" vertex="1" connectable="0" parent="l4kl2T851ScJ1SUTK7Ik-12">
          <mxGeometry x="-0.7094" relative="1" as="geometry">
            <mxPoint as="offset" />
          </mxGeometry>
        </mxCell>
        <mxCell id="l4kl2T851ScJ1SUTK7Ik-15" value="0..n" style="edgeLabel;html=1;align=center;verticalAlign=middle;resizable=0;points=[];" vertex="1" connectable="0" parent="l4kl2T851ScJ1SUTK7Ik-12">
          <mxGeometry x="0.6157" y="-3" relative="1" as="geometry">
            <mxPoint y="1" as="offset" />
          </mxGeometry>
        </mxCell>
        <mxCell id="l4kl2T851ScJ1SUTK7Ik-1" value="user" style="swimlane;fontStyle=1;align=center;verticalAlign=top;childLayout=stackLayout;horizontal=1;startSize=26;horizontalStack=0;resizeParent=1;resizeParentMax=0;resizeLast=0;collapsible=1;marginBottom=0;whiteSpace=wrap;html=1;" vertex="1" parent="1">
          <mxGeometry x="120" y="440" width="160" height="130" as="geometry">
            <mxRectangle x="330" y="360" width="100" height="30" as="alternateBounds" />
          </mxGeometry>
        </mxCell>
        <mxCell id="l4kl2T851ScJ1SUTK7Ik-3" value="" style="line;strokeWidth=1;fillColor=none;align=left;verticalAlign=middle;spacingTop=-1;spacingLeft=3;spacingRight=3;rotatable=0;labelPosition=right;points=[];portConstraint=eastwest;strokeColor=inherit;" vertex="1" parent="l4kl2T851ScJ1SUTK7Ik-1">
          <mxGeometry y="26" width="160" height="8" as="geometry" />
        </mxCell>
        <mxCell id="l4kl2T851ScJ1SUTK7Ik-4" value="&lt;span style=&quot;color: rgb(0, 0, 0); font-family: Helvetica; font-size: 12px; font-style: normal; font-variant-ligatures: normal; font-variant-caps: normal; font-weight: 400; letter-spacing: normal; orphans: 2; text-align: left; text-indent: 0px; text-transform: none; widows: 2; word-spacing: 0px; -webkit-text-stroke-width: 0px; white-space: normal; background-color: rgb(251, 251, 251); text-decoration-thickness: initial; text-decoration-style: initial; text-decoration-color: initial; display: inline !important; float: none;&quot;&gt;id:string&lt;/span&gt;&lt;div&gt;uid:string&lt;/div&gt;&lt;div&gt;...&lt;/div&gt;" style="text;strokeColor=none;fillColor=none;align=left;verticalAlign=top;spacingLeft=4;spacingRight=4;overflow=hidden;rotatable=0;points=[[0,0.5],[1,0.5]];portConstraint=eastwest;whiteSpace=wrap;html=1;" vertex="1" parent="l4kl2T851ScJ1SUTK7Ik-1">
          <mxGeometry y="34" width="160" height="96" as="geometry" />
        </mxCell>
        <mxCell id="l4kl2T851ScJ1SUTK7Ik-53" style="edgeStyle=none;rounded=0;orthogonalLoop=1;jettySize=auto;html=1;endArrow=none;endFill=0;" edge="1" parent="1" source="l4kl2T851ScJ1SUTK7Ik-5" target="l4kl2T851ScJ1SUTK7Ik-10">
          <mxGeometry relative="1" as="geometry" />
        </mxCell>
        <mxCell id="l4kl2T851ScJ1SUTK7Ik-54" value="0|1" style="edgeLabel;html=1;align=center;verticalAlign=middle;resizable=0;points=[];" vertex="1" connectable="0" parent="l4kl2T851ScJ1SUTK7Ik-53">
          <mxGeometry x="0.7938" y="1" relative="1" as="geometry">
            <mxPoint as="offset" />
          </mxGeometry>
        </mxCell>
        <mxCell id="l4kl2T851ScJ1SUTK7Ik-5" value="channel" style="swimlane;fontStyle=1;align=center;verticalAlign=top;childLayout=stackLayout;horizontal=1;startSize=26;horizontalStack=0;resizeParent=1;resizeParentMax=0;resizeLast=0;collapsible=1;marginBottom=0;whiteSpace=wrap;html=1;" vertex="1" parent="1">
          <mxGeometry x="95" y="192" width="210" height="140" as="geometry">
            <mxRectangle x="330" y="360" width="100" height="30" as="alternateBounds" />
          </mxGeometry>
        </mxCell>
        <mxCell id="l4kl2T851ScJ1SUTK7Ik-6" value="" style="line;strokeWidth=1;fillColor=none;align=left;verticalAlign=middle;spacingTop=-1;spacingLeft=3;spacingRight=3;rotatable=0;labelPosition=right;points=[];portConstraint=eastwest;strokeColor=inherit;" vertex="1" parent="l4kl2T851ScJ1SUTK7Ik-5">
          <mxGeometry y="26" width="210" height="8" as="geometry" />
        </mxCell>
        <mxCell id="l4kl2T851ScJ1SUTK7Ik-7" value="&lt;div&gt;id:string&lt;/div&gt;&lt;div&gt;name: string&lt;/div&gt;&lt;div&gt;description: string&lt;/div&gt;&lt;div&gt;members:string[user.id]&lt;/div&gt;" style="text;strokeColor=none;fillColor=none;align=left;verticalAlign=top;spacingLeft=4;spacingRight=4;overflow=hidden;rotatable=0;points=[[0,0.5],[1,0.5]];portConstraint=eastwest;whiteSpace=wrap;html=1;" vertex="1" parent="l4kl2T851ScJ1SUTK7Ik-5">
          <mxGeometry y="34" width="210" height="106" as="geometry" />
        </mxCell>
        <mxCell id="l4kl2T851ScJ1SUTK7Ik-49" style="edgeStyle=orthogonalEdgeStyle;rounded=0;orthogonalLoop=1;jettySize=auto;html=1;entryX=0.5;entryY=1;entryDx=0;entryDy=0;endArrow=none;endFill=0;" edge="1" parent="1" source="l4kl2T851ScJ1SUTK7Ik-8" target="l4kl2T851ScJ1SUTK7Ik-36">
          <mxGeometry relative="1" as="geometry" />
        </mxCell>
        <mxCell id="l4kl2T851ScJ1SUTK7Ik-8" value="conversation" style="swimlane;fontStyle=1;align=center;verticalAlign=top;childLayout=stackLayout;horizontal=1;startSize=26;horizontalStack=0;resizeParent=1;resizeParentMax=0;resizeLast=0;collapsible=1;marginBottom=0;whiteSpace=wrap;html=1;" vertex="1" parent="1">
          <mxGeometry x="520" y="170" width="210" height="150" as="geometry">
            <mxRectangle x="330" y="360" width="100" height="30" as="alternateBounds" />
          </mxGeometry>
        </mxCell>
        <mxCell id="l4kl2T851ScJ1SUTK7Ik-9" value="" style="line;strokeWidth=1;fillColor=none;align=left;verticalAlign=middle;spacingTop=-1;spacingLeft=3;spacingRight=3;rotatable=0;labelPosition=right;points=[];portConstraint=eastwest;strokeColor=inherit;" vertex="1" parent="l4kl2T851ScJ1SUTK7Ik-8">
          <mxGeometry y="26" width="210" height="8" as="geometry" />
        </mxCell>
        <mxCell id="l4kl2T851ScJ1SUTK7Ik-10" value="id:string&lt;div&gt;messageBlock: messageBlock&lt;/div&gt;&lt;div&gt;type: &quot;user&quot; | &quot;channel&quot;&lt;br&gt;channelId?:string (channelId)&lt;br&gt;userIds?: string[]&lt;/div&gt;" style="text;strokeColor=none;fillColor=none;align=left;verticalAlign=top;spacingLeft=4;spacingRight=4;overflow=hidden;rotatable=0;points=[[0,0.5],[1,0.5]];portConstraint=eastwest;whiteSpace=wrap;html=1;" vertex="1" parent="l4kl2T851ScJ1SUTK7Ik-8">
          <mxGeometry y="34" width="210" height="116" as="geometry" />
        </mxCell>
        <mxCell id="l4kl2T851ScJ1SUTK7Ik-36" value="messageBlock" style="swimlane;fontStyle=0;childLayout=stackLayout;horizontal=1;startSize=26;fillColor=#dae8fc;horizontalStack=0;resizeParent=1;resizeParentMax=0;resizeLast=0;collapsible=1;marginBottom=0;whiteSpace=wrap;html=1;strokeColor=#6c8ebf;" vertex="1" parent="1">
          <mxGeometry x="540" y="-40" width="170" height="110" as="geometry" />
        </mxCell>
        <mxCell id="l4kl2T851ScJ1SUTK7Ik-38" value="&lt;div&gt;&lt;span style=&quot;background-color: initial;&quot;&gt;messages: message[]&lt;/span&gt;&lt;/div&gt;&lt;div&gt;&lt;span style=&quot;background-color: initial;&quot;&gt;threads: threadMessage[]&lt;/span&gt;&lt;/div&gt;" style="text;strokeColor=none;fillColor=none;align=left;verticalAlign=top;spacingLeft=4;spacingRight=4;overflow=hidden;rotatable=0;points=[[0,0.5],[1,0.5]];portConstraint=eastwest;whiteSpace=wrap;html=1;" vertex="1" parent="l4kl2T851ScJ1SUTK7Ik-36">
          <mxGeometry y="26" width="170" height="84" as="geometry" />
        </mxCell>
        <mxCell id="l4kl2T851ScJ1SUTK7Ik-48" style="edgeStyle=orthogonalEdgeStyle;rounded=0;orthogonalLoop=1;jettySize=auto;html=1;entryX=1.006;entryY=0.456;entryDx=0;entryDy=0;endArrow=none;endFill=0;entryPerimeter=0;" edge="1" parent="1" source="l4kl2T851ScJ1SUTK7Ik-43" target="l4kl2T851ScJ1SUTK7Ik-46">
          <mxGeometry relative="1" as="geometry">
            <Array as="points">
              <mxPoint x="945" y="-207" />
              <mxPoint x="721" y="-207" />
            </Array>
          </mxGeometry>
        </mxCell>
        <mxCell id="l4kl2T851ScJ1SUTK7Ik-43" value="threadMessage" style="swimlane;fontStyle=0;childLayout=stackLayout;horizontal=1;startSize=26;fillColor=#dae8fc;horizontalStack=0;resizeParent=1;resizeParentMax=0;resizeLast=0;collapsible=1;marginBottom=0;whiteSpace=wrap;html=1;strokeColor=#6c8ebf;" vertex="1" parent="1">
          <mxGeometry x="840" y="-40" width="190" height="110" as="geometry" />
        </mxCell>
        <mxCell id="l4kl2T851ScJ1SUTK7Ik-44" value="sourceMessage: message&lt;br&gt;&lt;div&gt;responses: message[]&lt;/div&gt;" style="text;strokeColor=none;fillColor=none;align=left;verticalAlign=top;spacingLeft=4;spacingRight=4;overflow=hidden;rotatable=0;points=[[0,0.5],[1,0.5]];portConstraint=eastwest;whiteSpace=wrap;html=1;" vertex="1" parent="l4kl2T851ScJ1SUTK7Ik-43">
          <mxGeometry y="26" width="190" height="84" as="geometry" />
        </mxCell>
        <mxCell id="l4kl2T851ScJ1SUTK7Ik-45" value="message" style="swimlane;fontStyle=0;childLayout=stackLayout;horizontal=1;startSize=26;fillColor=#dae8fc;horizontalStack=0;resizeParent=1;resizeParentMax=0;resizeLast=0;collapsible=1;marginBottom=0;whiteSpace=wrap;html=1;strokeColor=#6c8ebf;" vertex="1" parent="1">
          <mxGeometry x="530" y="-290" width="190" height="150" as="geometry" />
        </mxCell>
        <mxCell id="l4kl2T851ScJ1SUTK7Ik-46" value="timestamp:number&lt;div&gt;sender: string (userId)&lt;/div&gt;&lt;div&gt;text: string&lt;/div&gt;&lt;div&gt;emotes:{&lt;/div&gt;&lt;div&gt;&lt;span style=&quot;white-space: pre;&quot;&gt;&#x9;&lt;/span&gt;emoteId:string&lt;/div&gt;&lt;div&gt;&lt;span style=&quot;white-space: pre;&quot;&gt;&#x9;&lt;/span&gt;emoteFrom: string (userId)&lt;br&gt;&lt;/div&gt;&lt;div&gt;}&lt;/div&gt;" style="text;strokeColor=none;fillColor=none;align=left;verticalAlign=top;spacingLeft=4;spacingRight=4;overflow=hidden;rotatable=0;points=[[0,0.5],[1,0.5]];portConstraint=eastwest;whiteSpace=wrap;html=1;" vertex="1" parent="l4kl2T851ScJ1SUTK7Ik-45">
          <mxGeometry y="26" width="190" height="124" as="geometry" />
        </mxCell>
        <mxCell id="l4kl2T851ScJ1SUTK7Ik-47" style="edgeStyle=orthogonalEdgeStyle;rounded=0;orthogonalLoop=1;jettySize=auto;html=1;entryX=0.489;entryY=1.007;entryDx=0;entryDy=0;entryPerimeter=0;endArrow=none;endFill=0;" edge="1" parent="1" source="l4kl2T851ScJ1SUTK7Ik-36" target="l4kl2T851ScJ1SUTK7Ik-46">
          <mxGeometry relative="1" as="geometry" />
        </mxCell>
        <mxCell id="l4kl2T851ScJ1SUTK7Ik-50" style="edgeStyle=none;rounded=0;orthogonalLoop=1;jettySize=auto;html=1;endArrow=none;endFill=0;" edge="1" parent="1" source="l4kl2T851ScJ1SUTK7Ik-38" target="l4kl2T851ScJ1SUTK7Ik-44">
          <mxGeometry relative="1" as="geometry" />
        </mxCell>
        <mxCell id="l4kl2T851ScJ1SUTK7Ik-51" style="edgeStyle=orthogonalEdgeStyle;rounded=0;orthogonalLoop=1;jettySize=auto;html=1;entryX=0.525;entryY=1;entryDx=0;entryDy=0;entryPerimeter=0;endArrow=none;endFill=0;" edge="1" parent="1" source="l4kl2T851ScJ1SUTK7Ik-4" target="l4kl2T851ScJ1SUTK7Ik-10">
          <mxGeometry relative="1" as="geometry" />
        </mxCell>
        <mxCell id="l4kl2T851ScJ1SUTK7Ik-52" value="0|2" style="edgeLabel;html=1;align=center;verticalAlign=middle;resizable=0;points=[];" vertex="1" connectable="0" parent="l4kl2T851ScJ1SUTK7Ik-51">
          <mxGeometry x="0.9185" y="2" relative="1" as="geometry">
            <mxPoint as="offset" />
          </mxGeometry>
        </mxCell>
      </root>
    </mxGraphModel>
  </diagram>
</mxfile>
